<?xml version="1.0" standalone="no"?>
<!DOCTYPE svg PUBLIC "-//W3C//DTD SVG 1.1//EN" "http://www.w3.org/Graphics/SVG/1.1/DTD/svg11.dtd" >
<svg xmlns="http://www.w3.org/2000/svg">
<metadata>
Created by FontForge 20120731 at Tue Mar 29 16:26:41 2016
 By Ads
</metadata>
<defs>
<font id="iconfont" horiz-adv-x="1024" >
  <font-face 
    font-family="iconfont"
    font-weight="500"
    font-stretch="normal"
    units-per-em="1024"
    panose-1="2 0 6 3 0 0 0 0 0 0"
    ascent="896"
    descent="-128"
    x-height="792"
    bbox="-0.892857 -224 1024.17 896"
    underline-thickness="50"
    underline-position="-100"
    unicode-range="U+0078-E62A"
  />
<missing-glyph horiz-adv-x="374" 
d="M34 0v682h272v-682h-272zM68 34h204v614h-204v-614z" />
    <glyph glyph-name=".notdef" horiz-adv-x="374" 
d="M34 0v682h272v-682h-272zM68 34h204v614h-204v-614z" />
    <glyph glyph-name=".null" horiz-adv-x="0" 
 />
    <glyph glyph-name="nonmarkingreturn" horiz-adv-x="341" 
 />
    <glyph glyph-name="x" unicode="x" horiz-adv-x="1001" 
d="M281 543q-27 -1 -53 -1h-83q-18 0 -36.5 -6t-32.5 -18.5t-23 -32t-9 -45.5v-76h912v41q0 16 -0.5 30t-0.5 18q0 13 -5 29t-17 29.5t-31.5 22.5t-49.5 9h-133v-97h-438v97zM955 310v-52q0 -23 0.5 -52t0.5 -58t-10.5 -47.5t-26 -30t-33 -16t-31.5 -4.5q-14 -1 -29.5 -0.5
t-29.5 0.5h-32l-45 128h-439l-44 -128h-29h-34q-20 0 -45 1q-25 0 -41 9.5t-25.5 23t-13.5 29.5t-4 30v167h911zM163 247q-12 0 -21 -8.5t-9 -21.5t9 -21.5t21 -8.5q13 0 22 8.5t9 21.5t-9 21.5t-22 8.5zM316 123q-8 -26 -14 -48q-5 -19 -10.5 -37t-7.5 -25t-3 -15t1 -14.5
t9.5 -10.5t21.5 -4h37h67h81h80h64h36q23 0 34 12t2 38q-5 13 -9.5 30.5t-9.5 34.5q-5 19 -11 39h-368zM336 498v228q0 11 2.5 23t10 21.5t20.5 15.5t34 6h188q31 0 51.5 -14.5t20.5 -52.5v-227h-327z" />
    <glyph glyph-name="uniE600" unicode="&#xe600;" 
d="M859 1q0 -16 -6 -30t-16 -24.5t-24.5 -16.5t-29.5 -6h-598q-32 0 -54.5 22.5t-22.5 54.5v598q0 32 22.5 54.5t54.5 22.5h598q15 0 28.5 -5.5t23.5 -15t16.5 -22.5t7.5 -28l42 41l16 17q-9 18 -23 34t-31 27t-37.5 17.5t-42.5 6.5h-598q-62 0 -105.5 -43.5t-43.5 -105.5
v-598q0 -61 43.5 -104.5t105.5 -43.5h598q30 0 57.5 11.5t47.5 31.5t31.5 47.5t11.5 57.5v430l-72 -72v-358zM241 507h72v-72h-72v72zM726 472v35h-363v-72h327zM241 336h72v-72h-72v72zM590 336h-227v-72h156zM241 165h72v-72h-72v72zM363 165v-72h56v51v21h-56zM665 165
l-71 -72h132v72h-61zM937 610l-6 -6l-72 -71l-196 -197l-72 -72l-99 -99l-21 -21v-51h50l72 72l99 99l34 34l133 133l72 72l56 56z" />
    <glyph glyph-name="uniE601" unicode="&#xe601;" 
d="M599 535q25 31 39 73q14 43 14 91q12 -5 21.5 -9.5t16.5 -9t11 -8.5q6 -6 9 -15t3 -21q0 -39 -19 -77t-40 -38q-7 0 -21 3q-4 1 -9.5 3t-11.5 3.5t-13 4.5v0zM213 106q-59 75 -84 139q-26 66 -26 140q0 80 31 156q31 75 89 133q19 19 40 35t44 29.5t48 23.5q75 31 156 31
q82 0 156 -31q37 -15 70 -37t62 -51q12 -12 22.5 -24t20 -25t17.5 -26.5t15.5 -28t13.5 -29.5q31 -75 31 -156q0 -27 -3.5 -53t-10 -51.5t-17.5 -50.5q-31 -76 -89 -133q-57 -57 -132 -88.5t-156 -31.5q-98 0 -157 31q-59 32 -59 83q0 6 1 11t3 11q4 10 13 22q5 -4 9 -7
t7 -5q7 -4 13 -4q9 0 28 15q3 3 7 6.5t8 7.5l6 8q4 4 8 8.5t8 9.5q7 10 13.5 21.5t12 24.5t8 21t2.5 12q0 1 -1.5 4t-4 6.5t-6.5 8.5q-13 16 -13 31q0 20 11 54q4 12 9.5 24.5t11.5 26.5t14 30q26 53 42 74q5 7 10.5 12t11.5 9t11 6q2 0 4 1h4q2 1 5 1q30 3 45 26
q6 11 12 25.5t11 32.5q10 35 10 59q0 11 -1.5 17.5t-4.5 9.5q-2 2 -4.5 3.5t-5.5 2.5t-7.5 1.5t-9.5 0.5q-31 0 -53 -5q-11 -2 -19.5 -5.5t-14.5 -7.5q-14 -10 -44 -49q-8 -10 -16 -20.5t-15.5 -21.5t-15.5 -23l-16 -24q-59 -92 -96 -195q-38 -104 -38 -156q0 -10 4 -22
q5 -12 16 -29q-15 -20 -23 -39q-7 -20 -7 -38q0 -65 69 -106q35 -21 81 -31t103 -10q88 0 171 34q41 17 77.5 41.5t68.5 55.5q63 63 97 146q17 41 25.5 84t8.5 87q0 89 -34 170.5t-97 145.5q-32 32 -68 56.5t-77 41.5q-82 33 -172 33q-30 0 -58.5 -3.5t-56.5 -11t-55.5 -19
t-53 -26t-48.5 -32.5t-44 -39q-63 -63 -97 -145q-17 -41 -25.5 -84t-8.5 -87q0 -78 24 -144q23 -66 69 -117q3 -4 6.5 -7t6.5 -5.5t6 -4.5q9 -6 17 -6l8 1q2 1 9 3l3 1v0zM364 104q37 27 62 63q25 35 36 78q13 -9 22 -16t14 -13q9 -10 9 -22q0 -31 -31 -72t-59 -41
q-9 0 -22 6q-14 6 -31 17v0zM364 104z" />
    <glyph glyph-name="uniE602" unicode="&#xe602;" 
d="M933 370q7 0 12.5 3.5t8 8.5t2.5 11v275q0 39 -27.5 66.5t-66.5 27.5h-702q-39 0 -67 -27.5t-28 -66.5v-568q0 -39 28 -66.5t67 -27.5h704q39 0 67 27.5t28 66.5v104q0 7 -3.5 12.5t-9 8.5t-11.5 3q-10 0 -17 -7t-7 -17v0v-99q0 -10 -3.5 -19.5t-10 -16t-16 -10.5
t-19.5 -4h-697q-20 0 -35 14.5t-15 35.5v558q0 21 15 35.5t35 14.5h694q13 0 24.5 -6.5t18.5 -18t7 -25.5v-267q0 -11 7.5 -18.5t16.5 -7.5v0v0zM535 583q0 3 -1.5 6.5t-5 5.5t-7.5 2h-297q-3 0 -5 -0.5t-3 -2.5l-4 -2q-1 -2 -2 -4.5t-1 -4.5v-67q0 -5 4.5 -9.5t10.5 -4.5
h297q5 0 9.5 4t4.5 10v67zM419 415q0 5 -3.5 9.5t-10.5 4.5h-181q-4 0 -7 -2t-5.5 -5.5t-2.5 -6.5v-66q0 -3 1 -5l2 -4l4 -2q1 -2 3.5 -3t4.5 -1h181q14 0 14 15v66zM290 259h-66q-3 0 -5.5 -1.5t-4.5 -3.5t-3.5 -4.5t-1.5 -4.5v-67q0 -5 4.5 -9.5t10.5 -4.5h66q14 0 14 14
v67q0 14 -14 14v0zM455 304l-2 -5v-5l-5 -101v-24l24 9l97 36l4 2l3 5l260 343l9 14l-14 9l-87 66l-15 10l-9 -14zM725 623l87 -66l-2 23l-260 -343l7 5l-97 -35l21 -17l3 99l-5 -9l269 347zM760 495l19 28l-76 55l-18 -29zM760 495z" />
    <glyph glyph-name="uniE603" unicode="&#xe603;" 
d="M657 530l9 51q35 147 149 204q29 14 60 21v89l146 -147l-145 -145v89h-5q-3 0 -13 -0.5t-20 -2t-25 -6.5t-29.5 -12t-31.5 -19.5t-32.5 -28.5t-32 -40t-30.5 -53zM294 603h291v-73h-291v73zM294 311h437v-73h-437v73zM947 532h-73v-439h-653v655h438v73h-511v-145h-145
l-1 -801h799v145h146v512zM729 -52h-654v655h73v-583h581v-72z" />
    <glyph glyph-name="uniE604" unicode="&#xe604;" 
d="M512 -209q-104 0 -199 40q-91 39 -161.5 109.5t-109.5 161.5q-40 95 -40 198.5t40 198.5q39 91 109.5 161.5t161.5 109.5q95 40 198.5 40t198.5 -40q45 -19 86 -46.5t76 -62.5t62.5 -76t46.5 -86q40 -95 40 -198.5t-40 -198.5q-39 -91 -109 -162q-24 -23 -49.5 -43
t-54 -36.5t-58.5 -29.5q-95 -40 -198 -40zM512 749q-171 0 -298 -114q-123 -109 -146 -271q-4 -32 -5 -64q0 -45 9.5 -89.5t26.5 -84.5t41.5 -76t54.5 -66t66.5 -54.5t76 -41.5t84 -26.5t90.5 -9.5q91 0 173.5 35.5t143 96t96 143t35.5 173.5t-35.5 174t-96 143t-143 96
t-173.5 36zM569 161l-198 199l369 369l36 -36l-333 -333l126 -126l334 333l36 -36zM315 97l38 240l193 -193zM381 251l-16 -102l98 20z" />
    <glyph glyph-name="uniE605" unicode="&#xe605;" 
d="M945 276q0 -116 -57.5 -215t-156 -157t-214.5 -58q-87 0 -167 34t-137.5 92t-92 138.5t-33.5 167.5q0 115 57.5 214t156.5 157t214 58q87 0 166.5 -34t137.5 -92t92 -138t34 -167zM517 -84q96 -1 178.5 45.5t132 129.5t50.5 184q0 102 -50.5 186t-133 130t-177.5 47
q-95 0 -178 -45.5t-134 -129.5t-51 -187q0 -101 50 -184.5t133 -130t180 -45.5zM604 255q112 -53 133 -199q-19 3 -42 8q-7 48 -28.5 85t-60.5 59.5t-92 22.5q-136 1 -176 -168h-36q1 66 33.5 112.5t93.5 81.5l-3 3q-10 9 -18 17t-21 24.5t-20 37.5t-7 44q1 65 48.5 109.5
t111.5 44.5q42 0 77.5 -21t56.5 -56t21 -77q-1 -13 -3.5 -25t-6 -21.5t-7.5 -18.5t-8.5 -15.5t-9 -12.5t-9 -10.5t-9 -8.5t-8 -7t-6.5 -5.5t-4 -3.5zM406 384q0 -43 32.5 -76.5t76.5 -33.5t77.5 32.5t33.5 75.5t-33 76.5t-76 33.5q-28 1 -53.5 -14.5t-41.5 -40.5t-16 -53z
" />
    <glyph glyph-name="uniE606" unicode="&#xe606;" 
d="M530 742q-72 0 -139.5 -22t-122 -63.5t-95.5 -96t-63.5 -122t-22.5 -139.5q0 -43 10 -92h56q-12 47 -12 92q0 105 52.5 195t142 142t195 52t195 -52t142 -142t52.5 -195.5t-52.5 -195t-142 -141.5t-195.5 -52q-46 0 -90.5 10.5t-85.5 31.5t-76 51l-9 7l-136 -16l31 103
l-51 1q0 -1 -14 -42t-29 -82l-14 -42l196 22q122 -99 278 -99q90 0 172.5 35.5t142 95t94.5 141.5t35 172t-35 172t-94.5 141.5t-142 94.5t-172.5 35zM819 457q0 -10 -7.5 -17.5t-17.5 -7.5h-522q-10 0 -17.5 7.5t-7.5 17.5t7.5 17.5t17.5 7.5h522q10 0 17.5 -7.5t7.5 -17.5
zM819 297q0 -10 -7.5 -17.5t-17.5 -7.5h-522q-10 0 -17.5 7.5t-7.5 17.5t7.5 17.5t17.5 7.5h522q10 0 17.5 -7.5t7.5 -17.5zM819 139q0 -10 -7.5 -17.5t-17.5 -7.5h-522q-7 0 -12.5 3.5t-9 9t-3.5 12.5q0 10 7.5 17.5t17.5 7.5h522q10 0 17.5 -7.5t7.5 -17.5z" />
    <glyph glyph-name="uniE607" unicode="&#xe607;" 
d="M329 658h366v-181h-366v181zM190 172h158v-159h-158v159zM421 172h182v-159h-182v159zM237 366h550v-43h-550v43zM237 333h43v-132h-43v132zM490 454h43v-230h-43v230zM744 365h43v-164h-43v164zM676 172h158v-159h-158v159zM512 -224q-104 0 -199 40.5t-163.5 109
t-109 163.5t-40.5 199t40.5 199t109 163.5t163.5 109t199 40.5t199 -40.5t163.5 -109t109 -163.5t40.5 -199t-40.5 -199t-109 -163.5t-163.5 -109t-199 -40.5zM512 751q-75 0 -146 -23.5t-128 -66t-99.5 -99.5t-66 -128t-23.5 -146q0 -94 36.5 -180t98.5 -148t148 -98.5
t180 -36.5q63 0 123 16.5t111 46.5t93.5 72.5t72.5 93.5t46.5 111t16.5 123q0 94 -36.5 180t-98.5 148t-148 98.5t-180 36.5z" />
    <glyph glyph-name="uniE608" unicode="&#xe608;" 
d="M773 227l-259 -109l-260 109q-3 1 -7 1.5t-7.5 -0.5t-6.5 -3t-5.5 -4.5t-3.5 -6.5q-2 -4 -2 -8.5t2 -8.5t5 -7.5t7 -5.5l269 -112q4 -2 8.5 -2t9.5 2l268 112q9 4 12.5 12.5t-0.5 17.5t-12.5 12.5t-17.5 0.5zM773 327l-259 -108l-260 108q-9 4 -17.5 0.5t-12.5 -12.5
q-2 -4 -2 -9t2 -9t5 -7t7 -5l269 -112q4 -2 8.5 -2t9.5 2l268 112q9 4 12.5 12.5t-0.5 17.5q-2 4 -5 7.5t-7 5t-9 1.5t-9 -2zM972 300q0 75 -23.5 145t-66 126.5t-99 99t-126.5 66t-145 23.5q-174 0 -304 -115q-125 -110 -151 -275q-5 -35 -5 -70q0 -94 36.5 -179t98 -146.5
t146.5 -98t179 -36.5q153 0 277 94q5 6 5 13q0 9 -6 15t-14 6q-5 0 -8.5 -2t-6.5 -4q-53 -39 -116 -60.5t-131 -21.5q-113 0 -209 56t-151.5 152t-55.5 209t55.5 209t151.5 151.5t209.5 55.5t209 -55.5t151.5 -151.5t56 -209q0 -105 -47 -195v-1q-2 -3 -2 -5q0 -8 6 -14
t15 -6q6 0 11.5 3.5t7.5 9.5q52 101 52 211zM236 388l269 -112q4 -2 9 -2q2 0 4 0.5t5 1.5l268 112q14 6 14 22q0 7 -4 12.5t-10 8.5l-268 112q-3 1 -6 1.5t-6 0t-6 -1.5l-269 -112q-1 -1 -3 -2t-3.5 -2t-2.5 -2.5t-2 -3.5t-1.5 -3.5t-1 -3.5t-0.5 -4q0 -16 14 -22zM514 497
l208 -87l-208 -88l-209 88z" />
    <glyph glyph-name="uniE609" unicode="&#xe609;" 
d="M666 -161v307h102v-51h-51v-205h256v205h-51v51h102v-307h-358zM819 198h-358v51v51h-256v-307h-51v358h51h256v256h51v-256v-51v-51h358v-51v-205h-51v205zM563 505h51v205h-256v-205h52v-51h-103v307h359v-307h-103v51zM51 -110h256v205h-51v51h102v-307h-358v307h102
v-51h-51v-205z" />
    <glyph glyph-name="uniE60A" unicode="&#xe60a;" 
d="M514 321zM263 326l-2 2q-1 1 -1 2q-1 2 -2 5l2 -4q1 -2 3 -5zM762 38q0 -1 -1 -2v-1q0 1 1 3zM865 148q-42 0 -77.5 -21.5t-55.5 -56.5l-422 168q2 10 3.5 19.5t1.5 19.5q0 15 -2.5 28.5t-7.5 25.5l360 195q21 -28 53 -44.5t69 -16.5q63 0 108 44.5t45 108t-45 108
t-108 44.5t-108 -44.5t-45 -108.5v-9l2 -10q0 -5 1 -10l2 -8q1 -5 2.5 -9.5t3.5 -8.5l-360 -195q-21 29 -53.5 46t-69.5 17q-41 0 -76.5 -20.5t-56 -55.5t-20.5 -77q0 -63 45 -107.5t108 -44.5q41 0 76 20.5t56 54.5l423 -168q-5 -18 -5 -37q0 -41 20.5 -76.5t56 -56
t76.5 -20.5q63 0 108 45t45 108q0 31 -12 59.5t-32.5 49t-49 32.5t-59.5 12zM787 729q30 0 56 -15t41 -40.5t15 -56.5q0 -46 -33 -78.5t-79 -32.5q-30 0 -56 15t-41 40.5t-15 55.5q0 47 33 79.5t79 32.5zM162 166q-30 0 -56 15t-41 40.5t-15 55.5q0 47 33 79.5t79 32.5
q30 0 55.5 -14.5t40.5 -39.5q2 -4 5 -9q3 -7 5.5 -15t4 -16.5t1.5 -17.5q0 -59 -49 -92q-29 -19 -63 -19zM865 -117q-46 0 -79 33t-33 79q0 5 0.5 10.5t1.5 10.5t2.5 9.5t3.5 9.5v1q0 1 1 2q8 20 23.5 35.5t36 24.5t43.5 9q46 0 79 -33t33 -79t-33 -79t-79 -33z" />
    <glyph glyph-name="uniE60B" unicode="&#xe60b;" 
d="M781 115q45 0 77 32q15 16 23.5 36t8.5 42q0 20 -6.5 38.5t-18.5 33.5q-5 6 -11 11t-12.5 9t-13.5 7.5t-14.5 6t-15.5 3.5q-6 1 -11 4.5t-9 8t-6 10t-2 11.5v1q0 32 -8.5 62.5t-24.5 57t-37 48.5q-70 69 -168 69q-71 0 -131 -38q-29 -20 -51.5 -47t-36.5 -59
q-9 -20 -31 -21q-21 -1 -40.5 -7.5t-36.5 -17.5t-31 -26q-44 -46 -44 -111q0 -34 12.5 -64t34.5 -52h1q19 -20 43 -31.5t51 -14.5q21 -3 27.5 -21.5t-4.5 -34.5t-31 -13q-82 12 -136 66h1q-69 68 -69 165q0 91 63 159q56 58 135 70q9 18 20.5 34.5t25 31t28.5 27.5t31 24
q77 50 169 50q127 0 217 -89q79 -80 89 -191q45 -15 79 -54q13 -16 22.5 -34t14.5 -39t5 -43q0 -74 -52 -127q-22 -21 -50 -34.5t-59 -17.5h-3h-5h-28q-15 0 -25 10t-10 24t10 24.5t25 10.5h19zM495 -142l1 -1h1l1 -1q1 -1 2 -1l1 -1v-1h2q1 0 1 -1h2h2h1h1h1h1h1h2h1l2 1
l1 1l1 1l2 1l1 1h1v1l166 166q4 4 5.5 9.5t0 10.5t-5.5 9q-6 6 -14.5 6t-14.5 -6l-131 -130v475q0 5 -2.5 10t-7.5 7.5t-10 2.5q-9 0 -15 -6t-6 -14v-475l-130 130q-4 4 -9.5 5.5t-11 0t-9.5 -5.5q-6 -6 -6 -14.5t6 -14.5l165 -166h1zM510 -148v0v0z" />
    <glyph glyph-name="uniE60C" unicode="&#xe60c;" 
d="M103 630h807q7 0 13 3.5t9.5 10t3.5 13.5q0 11 -7.5 19t-18.5 8h-807q-6 0 -11 -2.5t-8.5 -6t-5.5 -8.5t-2 -10q0 -11 8 -19t19 -8zM103 442h161q4 0 8.5 1t7.5 3.5t5.5 6t4 7.5t1.5 9q0 11 -8 18.5t-19 7.5h-161q-11 0 -19 -7.5t-8 -18.5q0 -8 3.5 -14t9.5 -9.5t14 -3.5
zM103 253h107q11 0 19 8t8 19q0 8 -3.5 14t-9.5 9.5t-14 3.5h-107q-11 0 -19 -8t-8 -19q0 -7 3.5 -13t9.5 -10t14 -4zM103 92h161q11 0 19 8t8 19t-8 19t-19 8h-161q-11 0 -19 -8t-8 -19t8 -19t19 -8zM452 -16h-349q-11 0 -19 -7.5t-8 -18.5q0 -4 1 -7.5t2.5 -6.5t4 -5.5
t5.5 -4t6.5 -2.5t7.5 -1h349q5 0 9 1t7.5 3.5t6 6t3.5 7.5t1 9q0 11 -8 18.5t-19 7.5zM936 -16l-150 158q65 70 65 165q0 101 -73.5 173t-177.5 72q-51 0 -97.5 -19.5t-80.5 -52.5t-53.5 -78t-19.5 -95q0 -102 73 -173t178 -73q76 -1 121 31l162 -161q11 -12 27 -12
q5 0 10 1.5t9 4t7.5 6t6 7.5t4 9t1.5 10q0 16 -12 27zM600 119q-55 0 -101 25t-73 68.5t-27 94.5q0 78 59 133t142.5 55t142.5 -55t59 -133t-59 -133t-143 -55z" />
    <glyph glyph-name="uniE60D" unicode="&#xe60d;" 
d="M879 696l-347 143q-1 1 -3 1.5t-8 1.5h-12q-6 1 -14 0t-16 -3q-11 -4 -97.5 -39.5t-167.5 -69.5t-80 -34q-3 -1 -7.5 -3t-11.5 -9t-7 -14v-405q0 -4 2.5 -11t13.5 -29.5t26.5 -45.5t47 -57t71.5 -66t102 -70.5t135 -73.5q74 35 136 72.5t102 70.5t71 64.5t47.5 56
t27 43.5t13.5 29l2 10v412q0 5 -2.5 9t-6.5 7t-7.5 5.5t-6.5 3.5zM852 258q-1 -3 -2.5 -8.5t-11.5 -23.5t-24 -36.5t-41.5 -46.5t-62 -55t-87.5 -60t-117 -63q-239 115 -323 248q-18 28 -22 45v372q0 6 6.5 12t12.5 10l7 3q271 101 293 108q10 3 23 3t22 -1l8 -2l293 -106
q26 -13 26 -27v-372zM564 291l-132 342l-78 -209h-95v-57h116l57 152l132 -342l95 190h76v57h-115z" />
    <glyph glyph-name="uniE60E" unicode="&#xe60e;" 
d="M674 569h-316q-14 0 -23 9.5t-9 22.5v223q0 7 2.5 12.5t6.5 10t10 7t13 2.5h316q13 0 22.5 -9.5t9.5 -22.5v-223q0 -13 -9.5 -22.5t-22.5 -9.5zM390 633h252v159h-252v-159zM269 -31h-222q-14 0 -23 9.5t-9 22.5v234q0 13 9 22.5t23 9.5h222q14 0 23 -9.5t9 -22.5v-234
q0 -13 -9 -22.5t-23 -9.5zM79 33h158v170h-158v-170zM627 -31h-223q-13 0 -22.5 9.5t-9.5 22.5v234q0 13 9.5 22.5t22.5 9.5h223q13 0 22.5 -9.5t9.5 -22.5v-234q0 -13 -9.5 -22.5t-22.5 -9.5zM436 33h159v170h-159v-170zM973 -31h-223q-13 0 -22.5 9.5t-9.5 22.5v234
q0 13 9.5 22.5t22.5 9.5h223q13 0 22.5 -9.5t9.5 -22.5v-234q0 -13 -9.5 -22.5t-22.5 -9.5zM782 33h159v170h-159v-170zM488 247l-1 329h48l1 -331zM152 235zM897 236h-48v180h-667v-180h-48v204q0 10 7 17t17 7h715q7 0 12.5 -3.5t8.5 -9t3 -11.5v-204z" />
    <glyph glyph-name="uniE60F" unicode="&#xe60f;" 
d="M724 583h-426q-29 0 -49.5 -20.5t-20.5 -49.5v-281q0 -29 20.5 -49.5t49.5 -20.5h426q14 0 27 5.5t22.5 15t15.5 22.5t6 27v281q0 29 -21 49.5t-50 20.5zM741 548l-230 -175l-230 175h460zM263 232v281l159 -123l-157 -168q-2 6 -2 10zM291 198l159 169l61 -45l58 45
l163 -169h-441zM759 232q0 -2 -0.5 -4.5t-1.5 -5.5l-157 168l159 123v-281z" />
    <glyph glyph-name="uniE610" unicode="&#xe610;" 
d="M857 19l-74 130v261q0 77 -52 148t-133 101q-2 19 -9.5 36t-19 29.5t-26.5 19t-32 6.5q-35 0 -59.5 -25.5t-28.5 -65.5q-81 -30 -133 -101t-52 -148v-261l-77 -136q-8 -15 0 -29.5t25 -14.5h184q7 -32 27 -58t50 -41t64 -15t63.5 15t49.5 41t27 58h184h1q13 0 21 8.5
t8 20.5q0 13 -8 21zM510.5 692q15.5 0 24.5 -19q-1 0 -10 1t-14 1t-14 -1t-11 -1q9 19 24.5 19zM511 -87q-28 0 -49.5 15.5t-30.5 40.5h159q-4 -12 -12 -22.5t-18 -18t-23 -11.5t-26 -4zM236 27l56 100q4 6 4 14v269q0 77 63 142t151.5 65t151.5 -65t63 -142v-269
q0 -8 4 -14l56 -100h-549z" />
    <glyph glyph-name="uniE611" unicode="&#xe611;" 
d="M795 68l-117 118q55 68 55 155q0 25 -5 49.5t-14.5 46.5t-23 42t-30 36.5t-36.5 30t-42 22.5t-46.5 14.5t-49.5 5.5q-102 0 -174.5 -72.5t-72.5 -174.5t72.5 -174.5t174.5 -72.5q88 0 156 56l116 -118q8 -7 18.5 -7t18 7.5t7.5 18t-7 17.5zM290 341q0 81 57.5 138
t138.5 57t138.5 -57t57.5 -138t-57.5 -138.5t-138.5 -57.5q-23 0 -45 5t-41 15t-36 23t-30.5 30t-23.5 36.5t-15 41.5t-5 45z" />
    <glyph glyph-name="uniE612" unicode="&#xe612;" 
d="M517 213l149 149q7 7 9 16.5t-2 18.5t-12 14.5t-17 5.5h-298q-21 0 -29 -20q-2 -3 -2.5 -6t-0.5 -6t0.5 -6.5t2 -6t3 -5.5t3.5 -5l149 -149q5 -4 10.5 -6.5t12.5 -2.5q13 0 22 9z" />
    <glyph glyph-name="uniE613" unicode="&#xe613;" 
d="M382 766h-145q-44 0 -76 -31.5t-32 -75.5v-146q0 -43 32 -74t76 -31h250v251q0 29 -14 53.5t-38 39t-53 14.5zM435 461h-198q-22 0 -38.5 15t-16.5 37v146q0 22 16.5 38t38.5 16h145q15 0 27 -7.5t19 -20t7 -26.5v-198zM790 766h-145q-44 0 -76 -31.5t-32 -75.5v-251h253
q44 0 74.5 30.5t30.5 74.5v146q0 44 -30.5 75.5t-74.5 31.5zM790 461h-201v198q0 22 16.5 38t39.5 16h145q9 0 17 -3t14 -8t11 -11.5t7.5 -15t2.5 -16.5v-146q0 -14 -7 -26t-19 -19t-26 -7zM129 251v-145q0 -44 32 -75t76 -31h145q44 0 74.5 31t30.5 75v252h-250
q-44 0 -76 -31.5t-32 -75.5zM435 106q0 -22 -15.5 -37t-37.5 -15h-145q-22 0 -38.5 15t-16.5 37v145q0 14 7.5 27t20 20.5t27.5 7.5h198v-200zM790 358h-253v-252q0 -44 31.5 -75t76.5 -31h145q22 0 41.5 8.5t33.5 22.5t22 33.5t8 41.5v145q0 44 -30.5 75.5t-74.5 31.5z" />
    <glyph glyph-name="uniE614" unicode="&#xe614;" 
d="M836 -39.5q-1 4.5 -2.5 17.5t-3.5 20q-10 47 -31.5 87t-53 72t-73.5 57q-8 4 -8.5 7t6.5 10q78 69 81 169q0 56 -22 105.5t-59 82.5t-86.5 49t-102.5 9q-151 -21 -196 -166q-45 -142 68 -249q7 -6 7 -9.5t-8 -7.5q-135 -79 -162 -233q-4 -22 -1 -25.5t24 -3.5h3
q6 -1 9 0.5t4.5 4.5t2.5 9q22 154 166 223q6 3 11 3t10 -3q93 -38 186 0q11 5 21 0q134 -65 163 -206q5 -24 9.5 -28t29.5 -3h1q5 0 6.5 2t0.5 6.5zM512 213.5q-53 -0.5 -98 26t-71.5 71.5t-26.5 98q0 23 5 45t15 41t23 36t30 30.5t36.5 23.5t41.5 15t45 5q80 0 137.5 -57
t58.5 -138q0 -53 -26.5 -98.5t-71.5 -71.5t-98 -26.5z" />
    <glyph glyph-name="uniE615" unicode="&#xe615;" 
d="M512 -128q-87 0 -160.5 43t-116.5 116.5t-43 160.5q0 106 64 191v257q0 70 34.5 128.5t93 93t128.5 34.5q106 0 181 -75t75 -181v-257q64 -85 64 -191q0 -87 -43 -160.5t-116.5 -116.5t-160.5 -43zM704 640q0 80 -56 136t-136 56t-136 -56t-56 -136v-192q41 30 90 47
t102 17q106 0 192 -64v192zM712 352h-8v9q-36 41 -86 64t-106 23q-106 0 -181 -75t-75 -181q0 -52 20.5 -99.5t54.5 -81.5t81.5 -54.5t99.5 -20.5q106 0 181 75t75 181q0 90 -56 160zM512 64q-13 0 -22.5 9.5t-9.5 22.5v128q0 13 9.5 22.5t22.5 9.5q4 0 8.5 -1t8 -3t6.5 -5
t5 -6.5t3 -8t1 -8.5v-128q0 -4 -1 -8.5t-3 -8t-5 -6.5t-6.5 -5t-8 -3t-8.5 -1z" />
    <glyph glyph-name="uniE616" unicode="&#xe616;" 
d="M723 311l-409 410q-5 5 -12.5 5t-12.5 -5t-5 -12t5 -12l398 -398l-398 -397q-5 -5 -5 -12.5t5 -12.5t12 -5q8 1 13 5l409 410q5 5 5 12t-5 12z" />
    <glyph glyph-name="uniE617" unicode="&#xe617;" 
d="M326 299l397 398q3 3 4.5 7.5t0 8.5t-4.5 8q-5 5 -12 5t-12 -5l-410 -410q-5 -5 -5 -12t5 -12l410 -410l4 -2l4 -2q2 -1 4 -1q7 0 12 5t5 12.5t-5 12.5z" />
    <glyph glyph-name="uniE618" unicode="&#xe618;" 
d="M374 45q-26 0 -48 -12.5t-35 -34.5t-13 -48q0 -40 28 -68t68 -28t68 28t28 67.5t-28 67.5t-68 28zM374 -104q-22 0 -37.5 16t-15.5 38q0 14 7 26.5t19 19.5t27 7q22 0 37.5 -15.5t15.5 -37.5t-15.5 -38t-37.5 -16zM215 620l-22 128h-128v-43h89l103 -596h596v43h-557
l-12 66l569 61l106 298v43h-744zM831 322l-554 -62l-55 317h688zM736 45q-20 0 -37.5 -7.5t-30.5 -20t-20.5 -30.5t-7.5 -37q0 -40 28 -68t67.5 -28t67.5 28t28 67.5t-28 67.5t-67 28zM736 -104q-22 0 -38 16t-16 38t16 37.5t38 15.5t37.5 -15.5t15.5 -37.5q0 -35 -32 -49
q-11 -4 -21 -5z" />
    <glyph glyph-name="uniE619" unicode="&#xe619;" 
d="M512 738q-91 0 -174.5 -36t-144 -96t-96 -143.5t-35.5 -175t35.5 -174.5t96 -143.5t144 -96t174.5 -35.5t174.5 35.5t143.5 96t96 143.5t36 175q0 61 -16.5 119t-45.5 107.5t-70.5 91t-90.5 70.5t-107.5 45.5t-119.5 16.5zM512 -121q-111 0 -205 54.5t-149 149t-55 205.5
t55 205t149 149t205 55t205 -55t149 -149t55 -205q0 -42 -8.5 -82.5t-24 -76.5t-38 -69.5t-50 -61t-60.5 -50t-69 -37.5t-76.5 -23.5t-82.5 -8.5zM720 311h-185v185q0 6 -3 11.5t-8.5 8.5t-11.5 3q-10 0 -16.5 -7t-6.5 -16v-185h-185q-10 0 -16.5 -7t-6.5 -16.5t6.5 -16
t16.5 -6.5h185v-185q0 -10 6.5 -16.5t16 -6.5t16.5 6.5t7 16.5v185h185q9 0 16 6.5t7 16t-7 16.5t-16 7z" />
    <glyph glyph-name="uniE61A" unicode="&#xe61a;" 
d="M290 885q23 0 40 -17l444 -444q17 -17 17 -40t-17 -40l-444 -444q-17 -17 -40 -17t-40 17.5t-17 40t17 39.5l401 404l-401 401q-17 17 -17 40t17 40q16 20 40 20z" />
    <glyph glyph-name="uniE61B" unicode="&#xe61b;" 
d="M552 299l231 232q8 8 8 19.5t-8 19.5t-19 8t-19 -8l-232 -232l-232 232q-1 1 -3 2.5t-4 2.5t-4 1l-4 2h-4h-4l-4 -2q-2 0 -4 -1t-4 -2.5t-3 -2.5q-8 -8 -8 -19.5t8 -19.5l231 -232l-231 -232q-8 -8 -8 -19t8 -19t19 -8t19 8l232 231l232 -231q5 -6 12 -7.5t14 0t12 7.5
q8 8 8 19t-8 19z" />
    <glyph glyph-name="uniE61C" unicode="&#xe61c;" 
d="M512 896q-138 0 -256 -69t-187 -187t-69 -256t69 -256t187 -187t256 -69t256 69t187 187t69 256t-69 256t-187 187t-256 69zM512 -77q-95 0 -179.5 36.5t-146.5 104.5q43 96 132 153.5t194 57.5q42 0 82.5 -9.5t77 -28t68 -44t56.5 -58.5t42 -71q-31 -34 -68 -60t-78 -44
t-86.5 -27.5t-93.5 -9.5zM358 474q0 30 12.5 58.5t33.5 49t49 33t59 12.5q62 0 108 -45.5t46 -108t-46 -108t-108 -45.5t-108 45.5t-46 108.5zM614 301q44 24 73.5 72.5t29.5 100.5q0 81 -58.5 139.5t-140.5 58.5q-40 0 -77.5 -15t-65.5 -41t-44.5 -63t-16.5 -79
q0 -23 4.5 -44.5t13 -40.5t21 -35.5t28.5 -30t35 -22.5q-81 -19 -150 -73.5t-112 -131.5q-49 58 -76 132.5t-27 155.5q0 94 36.5 179.5t98 147t147 98t179.5 36.5t179.5 -36.5t147 -98t98 -147t36.5 -179.5q0 -40 -7 -79t-20.5 -75t-32 -69t-43.5 -65q-38 77 -106 131.5
t-150 73.5z" />
    <glyph glyph-name="uniE61D" unicode="&#xe61d;" 
d="M883 384q0 38 -19 70.5t-51.5 51.5t-70.5 19q-57 0 -98.5 -41.5t-41.5 -99.5t41.5 -99.5t99 -41.5t99 41.5t41.5 99.5zM742 294q-25 0 -45.5 12t-32 32.5t-11.5 45.5q0 38 25.5 64t63.5 26q26 0 46.5 -12t32 -32.5t11.5 -45.5q0 -38 -25.5 -64t-64.5 -26zM512 474
q58 0 99.5 41.5t41.5 99t-41.5 99t-99.5 41.5q-38 0 -70.5 -19t-51.5 -51.5t-19 -70.5q0 -57 41.5 -98.5t99.5 -41.5zM512 710q38 0 64 -25.5t26 -64t-26 -64t-64 -25.5q-25 0 -47 11.5t-35.5 32.5t-13.5 46q0 19 8 35.5t21 28.5t30.5 18.5t36.5 6.5zM416 384q0 38 -19 70.5
t-51.5 51.5t-70.5 19q-57 0 -95.5 -41.5t-38.5 -99.5t41.5 -99.5t99.5 -41.5q57 0 95.5 41.5t38.5 99.5zM275 294q-15 0 -29 4.5t-24.5 12.5t-19 19t-12.5 25t-4 29q0 38 25.5 64t63.5 26q39 0 67.5 -26t28.5 -64q0 -39 -26.5 -64.5t-69.5 -25.5zM512 294q-58 0 -99.5 -41.5
t-41.5 -99t41.5 -99t99.5 -41.5q38 0 70.5 19t51.5 51.5t19 70.5q0 28 -11.5 54t-30.5 45t-45 30t-54 11zM512 58q-38 0 -64 25.5t-26 63.5q0 25 12 46t32.5 32.5t45.5 11.5q38 0 64 -25.5t26 -64.5q0 -35 -26.5 -62t-63.5 -27zM992 -83h-262q131 58 212.5 184.5t81.5 282.5
q0 138 -69 256t-187 187t-256 69t-256 -69t-187 -187t-69 -256t69 -256t187 -187t256 -69h13h467q2 0 4 0.5t3.5 2t2.5 3t2 3.5t1 4v19q0 6 -13 13zM512 -83q-94 0 -180.5 37t-149.5 100t-100 149.5t-37 180.5q0 75 23.5 146.5t67 129t101 101t129 67t146.5 23.5
q95 0 181 -36.5t149 -98.5t100 -149t37 -183t-37 -183t-100 -149t-149 -98.5t-181 -36.5z" />
    <glyph glyph-name="uniE61E" unicode="&#xe61e;" 
d="M738 163l46 45l-272 272l-272 -272l46 -45l226 226z" />
    <glyph glyph-name="uniE61F" unicode="&#xe61f;" 
d="M286 413l-46 -45l272 -272l272 272l-46 45l-226 -226z" />
    <glyph glyph-name="uniE620" unicode="&#xe620;" horiz-adv-x="1025" 
d="M12 307l57 -31q3 -2 8 -3.5t15.5 1.5t16.5 16l142 309q1 3 3 7.5t0 15t-12 16.5l-62 31q-2 2 -5.5 3t-12.5 -2t-14 -13q0 -4 -36.5 -83t-73.5 -156l-36 -76q-9 -25 10 -35zM947 276l59 28q1 0 2.5 1t6 4.5t6.5 8t3 11.5t-4 16l-146 307q0 1 -1 2l-4 6q-3 5 -7 7t-10 3.5
t-12 -1.5l-63 -32q-1 0 -2 -1t-4.5 -4t-4.5 -6.5t-2 -9.5t3 -13q7 -6 148 -314q1 -2 4 -5t11.5 -9t16.5 1zM151 277l19 42l68 -89q5 1 12.5 2t23.5 -3t23 -17q2 -2 4 -6t5.5 -17t-0.5 -28q0 -1 9 -11q31 8 49 -15q2 -1 4.5 -4t7 -14t3.5 -23q1 0 3 -1t6 -4.5t5 -6.5
q30 7 45 -11q2 -2 4.5 -5.5t7.5 -13t4 -18.5l28 -21q1 0 2.5 -0.5t6.5 -2t8.5 -4t7 -7t5.5 -10.5l24 -19q2 0 4.5 -1t9.5 -1.5t12.5 1t10.5 8.5t5 18l-93 74q0 1 -0.5 3t-0.5 7t1.5 8.5t7.5 6t15 0.5l139 -102q1 0 3 -0.5t6.5 -1t8.5 0t9.5 4.5t9.5 10q13 19 -6 40l-148 111
q0 2 -0.5 4t-1 7t1 9t7 7t14.5 2l175 -129q25 -10 36 9q14 19 0 39l-194 147q0 2 -0.5 4t-1 8t2 9t8 6t16.5 -1l199 -148q4 -1 9 -2t17 3t18 15q2 3 4 8.5t1 18.5t-11 23l-282 257q-2 1 -6 2.5t-14.5 3t-20.5 0t-22 -10t-21 -24.5q0 -2 -0.5 -5t-3 -12.5t-6 -18.5
t-11.5 -20.5t-18 -20.5t-26 -17t-35 -11q-2 0 -4 0.5t-9 1.5t-12 4l-12 6q-7 3 -10 8.5t-5.5 12.5t2.5 17q2 2 5 8t8 27t4 46q2 40 29 73h-102l22 48h154q7 5 18.5 11t41 15.5t50.5 7.5h2q2 0 6.5 -0.5t9 -0.5t10.5 -1t11.5 -1.5t11.5 -1.5t11.5 -2.5t9.5 -3t7 -2.5
q9 -3 24 -7.5t47 -10.5t48 -3l137 -297l-21 -52l2 -2q1 -2 4.5 -7.5t6.5 -11t5.5 -14.5t2.5 -18t-2.5 -20t-8.5 -22q-16 -34 -64 -36q-1 -2 0.5 -10t-3.5 -22t-16 -23q-2 -3 -6 -7t-20 -9t-35 -2q-1 -1 -0.5 -4t-1 -9t-3.5 -12t-7.5 -13.5t-13.5 -13.5q-4 -4 -11 -8t-30 -3
t-46 18q-1 -4 -3.5 -10t-15.5 -17.5t-32 -15.5h-3h-9q-6 0 -11.5 1t-12.5 4t-12 8q-2 -2 -4 -6t-10 -13t-17 -14t-21.5 -4.5t-25.5 10.5l-3 3q-2 2 -6 8t-6 12.5t-1 16.5t7 20q-1 -2 -4 -6t-12.5 -12.5t-19 -12.5t-23 -1t-26.5 16l-2 3q-2 1 -5.5 7t-4.5 12.5t1 17.5t9 23
l-2 -2q-2 -2 -6.5 -6t-9.5 -6.5t-12 -4.5t-14.5 -2t-16 4t-17.5 13q-1 0 -2.5 2t-5 8.5t-5 13.5t0 19t7.5 24q-2 -2 -4.5 -5t-11.5 -8.5t-18 -7.5t-22 2t-26 17q-2 2 -4 6t-6 18.5t3 32.5l42 60z" />
    <glyph glyph-name="uniE621" unicode="&#xe621;" 
d="M121 -79l262 73l27 27l-185 185l-27 -27l-77 -258v0zM256 237l185 -185l361 361l-185 185l-361 -361v0zM885 607l-74 74q-32 32 -55.5 32t-54.5 -32l-53 -52l185 -185l52 52q32 32 32 55.5t-32 55.5v0zM380 676q-32 32 -55.5 32t-55.5 -32l-175 -176l-31 31l185 185
q32 32 77 32t77 -32l101 -102l-30 -31l-93 93v0zM171 485l61 61l31 -30l-62 -62l-3 4l34 -35l93 93l30 -31l-92 -93l9 -9l-30 -31l-148 148l31 31l46 -46v0zM602 54l92 -93l46 -46l145 145q32 32 32 55.5t-32 55.5l-97 97l31 31l106 -107q32 -31 32 -76.5t-32 -77.5
l-154 -153l-31 -31l-31 31l-152 152l31 31l14 -14v0zM725 115l-92 -92l-31 31l92 92l31 -31v0zM740 69l31 -31l-77 -77l-31 31l77 77v0zM740 69z" />
    <glyph glyph-name="uniE622" unicode="&#xe622;" 
d="M507 808q57 0 111.5 -15t100.5 -42t84.5 -66t65.5 -85t42.5 -100.5t15.5 -111.5q0 -114 -56.5 -210.5t-153 -153t-210.5 -56.5t-210.5 56.5t-153 153t-56.5 210.5q0 57 15 111.5t42 100.5t66 85t85 66t100.5 42t111.5 15zM507 828q-90 0 -171.5 -34.5t-140.5 -93.5
t-93.5 -141t-34.5 -171q0 -71 22 -138.5t63 -121.5t95 -95t121 -63t139 -22q51 0 100.5 11.5t93 33t81.5 52t68.5 68.5t52 81.5t33 93t11.5 100.5q0 60 -16 117t-44 105t-69 89t-89 69.5t-105 44t-117 15.5zM711 393q0 10 -5 17.5t-13 12t-18 4.5h-53h-74q22 51 22 99
q0 22 -7 35.5t-15.5 17.5t-20.5 4q-6 0 -12.5 -3t-11.5 -9t-5 -14q0 -10 -1.5 -23t-11 -39t-26.5 -40q-24 -20 -34 -27.5t-20 -11.5t-21 -4l-73 -1h-8v-183h85q3 0 9 -2t13.5 -5t14.5 -7q49 -22 71 -23h122q16 0 26.5 10.5t10.5 24.5q0 11 -7 22q4 1 8 3.5t7.5 5.5t5.5 7
t3.5 8.5t1.5 9.5q0 2 -0.5 4.5t-1 4.5t-1.5 4l-2 4l-2 4q11 4 17.5 13.5t6.5 20.5t-7 21q27 9 27 35zM711 393z" />
    <glyph glyph-name="uniE623" unicode="&#xe623;" 
d="M914 765l-546 -546l-258 257l-110 -110l363 -363l11 11l650 641z" />
    <glyph glyph-name="uniE624" unicode="&#xe624;" 
d="M350 -10l-295 317l38 35l260 -280l579 532l34 -38z" />
    <glyph glyph-name="uniE625" unicode="&#xe625;" 
d="M512 181l416 347h-3l-4 1h-818q-1 0 -4 -1h-3zM958 492q0 4 -2 11l-295 -246l295 -295q2 7 2 9v521zM68 503q-1 -2 -1 -3.5t-0.5 -3.5t-0.5 -4v-521q0 -1 2 -9l295 295zM633 234l-109 -91q-3 -2 -6 -3t-6 -1q-7 0 -12 4l-108 90l-298 -297h2q5 -2 7 -2h818q3 0 7 2h2z
" />
    <glyph glyph-name="uniE626" unicode="&#xe626;" 
d="M804 -8h-584q-35 0 -59.5 25t-24.5 60v446q0 35 24.5 60t59.5 25h584q35 0 59.5 -25t24.5 -60v-446q0 -35 -24.5 -60t-59.5 -25zM220 566q-7 0 -13.5 -2.5t-11.5 -6t-9 -9t-6 -12t-2 -13.5v-446q0 -9 3.5 -17t9 -13.5t13.5 -9t16 -3.5h584q8 0 16 3.5t13.5 9t9 13.5
t3.5 17v446q0 18 -12.5 30.5t-29.5 12.5h-584zM618 475h126v-126h-126v126zM250 165h364v-42h-364v42zM250 251h216v-42h-216v42z" />
    <glyph glyph-name="uniE627" unicode="&#xe627;" 
d="M952 50l-3 5l-10 11q-1 2 -3.5 4.5t-12.5 12t-22 19.5q-18 15 -38 30t-37 26l-45 29l-20 10q-6 3 -16 3.5t-18 -2.5q-14 -5 -21 -17l-18 -27l-5 -9q-3 -5 -11 -22l-14 -27q-12 -21 -34 -30.5t-50 2.5q-96 54 -161 116q-94 89 -126 161q-8 12 -2 35t26 32q12 6 32 14
t29 13q7 5 14 9t17 10q1 0 4 3l4 4l2 2q18 17 9 40l-2 8q-14 30 -34 65q-8 13 -18.5 28.5t-20.5 28.5q-15 20 -30.5 34.5t-23.5 18.5l-9 5l-12 6q-6 3 -12 4t-12 0.5t-11.5 -2t-10.5 -3.5q-15 -6 -29.5 -14.5t-20.5 -13.5t-25 -20q-16 -13 -29.5 -28t-24.5 -31.5t-18.5 -33
t-10 -33.5t-0.5 -32q9 -67 82.5 -186t171 -211.5t222.5 -162t196 -78.5q74 -9 158 68q36 34 52 68q7 13 8.5 28t-6.5 30zM952 50z" />
    <glyph glyph-name="uniE628" unicode="&#xe628;" 
d="M512 621q-70 0 -129 -34.5t-93 -93.5t-34 -129q0 -115 160 -310q23 -29 41 -48q23 -27 55.5 -27t55.5 27q8 9 21.5 24.5t48 60.5t61 87t48 94.5t21.5 91.5q0 53 -20 100.5t-54.5 81.5t-82 54.5t-99.5 20.5zM512 254q-49 0 -84 34.5t-35 84t35 84t84 34.5t84 -34.5t35 -84
t-35 -84t-84 -34.5z" />
    <glyph glyph-name="uniE629" unicode="&#xe629;" 
d="M415 246l-217 218l-73 -72l290 -291l482 493l-72 73z" />
    <glyph glyph-name="uniE62A" unicode="&#xe62a;" 
d="M987 323q-7 7 -400 382q-30 30 -74.5 28.5t-80.5 -36.5q-12 -12 -201.5 -186.5t-198.5 -182.5q-16 -16 -16.5 -39.5t19.5 -42.5q18 -15 41.5 -14.5t39.5 12.5q7 5 56 50t104.5 96.5t109.5 100.5t66 61q61 54 122 0q11 -11 167.5 -157t167.5 -156q16 -13 40 -13t43 15
q11 10 15 24t-1.5 29.5t-18.5 28.5zM451 464q-9 -9 -87 -79t-150 -136l-73 -66v-193q0 -24 16.5 -36.5t45.5 -12.5h182v150q0 15 7 24t23 9h55h86h48q30 0 30 -33v-150h187q27 0 44 16.5t17 38.5v186q-292 267 -308 282q-29 25 -63 24.5t-60 -24.5z" />
  </font>
</defs>
</svg>
